<svg height="1438" width="720" xmlns="http://www.w3.org/2000/svg">
<rect height="1438" fill="#555" width="720"></rect>
<text fill="#7f7" font-family="Courier New" font-size="12" xml:space="preserve">
<tspan x="10" y="26">6 megabytes installed</tspan>
<tspan x="10" y="42"></tspan>
<tspan x="10" y="58">node_modules</tspan>
<tspan x="10" y="74">└─┬ readme@0.6.0 </tspan>
<tspan x="10" y="90">  ├─┬ concat-stream@1.5.2 </tspan>
<tspan x="10" y="106">  │ ├── inherits@2.0.3 </tspan>
<tspan x="10" y="122">  │ ├─┬ readable-stream@2.0.6 </tspan>
<tspan x="10" y="138">  │ │ ├── core-util-is@1.0.2 </tspan>
<tspan x="10" y="154">  │ │ ├── isarray@1.0.0 </tspan>
<tspan x="10" y="170">  │ │ ├── process-nextick-args@1.0.7 </tspan>
<tspan x="10" y="186">  │ │ ├── string_decoder@0.10.31 </tspan>
<tspan x="10" y="202">  │ │ └── util-deprecate@1.0.2 </tspan>
<tspan x="10" y="218">  │ └── typedarray@0.0.6 </tspan>
<tspan x="10" y="234">  ├── default-pager@1.0.2 </tspan>
<tspan x="10" y="250">  ├── duplexer2@0.1.4 </tspan>
<tspan x="10" y="266">  ├─┬ fallback-stream@1.1.0 </tspan>
<tspan x="10" y="282">  │ └── multistream@1.6.1 </tspan>
<tspan x="10" y="298">  ├── find-root@0.1.2 </tspan>
<tspan x="10" y="314">  ├── github-url@1.2.0 </tspan>
<tspan x="10" y="330">  ├─┬ help-version@1.1.1 </tspan>
<tspan x="10" y="346">  │ ├── callsites@1.0.1 </tspan>
<tspan x="10" y="362">  │ ├── find-root@1.0.0 </tspan>
<tspan x="10" y="378">  │ └─┬ once@1.4.0 </tspan>
<tspan x="10" y="394">  │   └── wrappy@1.0.2 </tspan>
<tspan x="10" y="410">  ├── is-core-module@1.0.2 </tspan>
<tspan x="10" y="426">  ├─┬ jsonstream@1.0.3 </tspan>
<tspan x="10" y="442">  │ ├── jsonparse@1.0.0 </tspan>
<tspan x="10" y="458">  │ └── through@2.3.8 </tspan>
<tspan x="10" y="474">  ├── marked@0.3.6 </tspan>
<tspan x="10" y="490">  ├─┬ marked-terminal@1.6.2 </tspan>
<tspan x="10" y="506">  │ ├─┬ cardinal@1.0.0 </tspan>
<tspan x="10" y="522">  │ │ ├── ansicolors@0.2.1 </tspan>
<tspan x="10" y="538">  │ │ └─┬ redeyed@1.0.1 </tspan>
<tspan x="10" y="554">  │ │   └── esprima@3.0.0 </tspan>
<tspan x="10" y="570">  │ ├─┬ chalk@1.1.3 </tspan>
<tspan x="10" y="586">  │ │ ├── ansi-styles@2.2.1 </tspan>
<tspan x="10" y="602">  │ │ ├── escape-string-regexp@1.0.5 </tspan>
<tspan x="10" y="618">  │ │ ├─┬ has-ansi@2.0.0 </tspan>
<tspan x="10" y="634">  │ │ │ └── ansi-regex@2.1.1 </tspan>
<tspan x="10" y="650">  │ │ ├── strip-ansi@3.0.1 </tspan>
<tspan x="10" y="666">  │ │ └── supports-color@2.0.0 </tspan>
<tspan x="10" y="682">  │ ├─┬ cli-table@0.3.1 </tspan>
<tspan x="10" y="698">  │ │ └── colors@1.0.3 </tspan>
<tspan x="10" y="714">  │ ├── lodash.assign@4.2.0 </tspan>
<tspan x="10" y="730">  │ └─┬ node-emoji@1.5.1 </tspan>
<tspan x="10" y="746">  │   └── string.prototype.codepointat@0.2.0 </tspan>
<tspan x="10" y="762">  ├── minimist@1.2.0 </tspan>
<tspan x="10" y="778">  ├─┬ mkdirp@0.5.1 </tspan>
<tspan x="10" y="794">  │ └── minimist@0.0.8 </tspan>
<tspan x="10" y="810">  ├─┬ node-api-docs@0.3.1 </tspan>
<tspan x="10" y="826">  │ ├─┬ debug@2.6.4 </tspan>
<tspan x="10" y="842">  │ │ └── ms@0.7.3 </tspan>
<tspan x="10" y="858">  │ ├─┬ got@5.7.1 </tspan>
<tspan x="10" y="874">  │ │ ├─┬ create-error-class@3.0.2 </tspan>
<tspan x="10" y="890">  │ │ │ └── capture-stack-trace@1.0.0 </tspan>
<tspan x="10" y="906">  │ │ ├── is-redirect@1.0.0 </tspan>
<tspan x="10" y="922">  │ │ ├── is-retry-allowed@1.1.0 </tspan>
<tspan x="10" y="938">  │ │ ├── is-stream@1.1.0 </tspan>
<tspan x="10" y="954">  │ │ ├── lowercase-keys@1.0.0 </tspan>
<tspan x="10" y="970">  │ │ ├── node-status-codes@1.0.0 </tspan>
<tspan x="10" y="986">  │ │ ├── object-assign@4.1.1 </tspan>
<tspan x="10" y="1002">  │ │ ├─┬ parse-json@2.2.0 </tspan>
<tspan x="10" y="1018">  │ │ │ └─┬ error-ex@1.3.1 </tspan>
<tspan x="10" y="1034">  │ │ │   └── is-arrayish@0.2.1 </tspan>
<tspan x="10" y="1050">  │ │ ├─┬ pinkie-promise@2.0.1 </tspan>
<tspan x="10" y="1066">  │ │ │ └── pinkie@2.0.4 </tspan>
<tspan x="10" y="1082">  │ │ ├── read-all-stream@3.1.0 </tspan>
<tspan x="10" y="1098">  │ │ ├── timed-out@3.1.3 </tspan>
<tspan x="10" y="1114">  │ │ ├── unzip-response@1.0.2 </tspan>
<tspan x="10" y="1130">  │ │ └─┬ url-parse-lax@1.0.0 </tspan>
<tspan x="10" y="1146">  │ │   └── prepend-http@1.0.4 </tspan>
<tspan x="10" y="1162">  │ └── herror@0.1.0 </tspan>
<tspan x="10" y="1178">  ├─┬ npm-prefix@1.1.1 </tspan>
<tspan x="10" y="1194">  │ ├─┬ rc@1.2.1 </tspan>
<tspan x="10" y="1210">  │ │ ├── deep-extend@0.4.1 </tspan>
<tspan x="10" y="1226">  │ │ ├── ini@1.3.4 </tspan>
<tspan x="10" y="1242">  │ │ └── strip-json-comments@2.0.1 </tspan>
<tspan x="10" y="1258">  │ └─┬ untildify@2.1.0 </tspan>
<tspan x="10" y="1274">  │   └── os-homedir@1.0.2 </tspan>
<tspan x="10" y="1290">  ├── opener@1.4.3 </tspan>
<tspan x="10" y="1306">  ├── pager-supports-color@0.1.0 </tspan>
<tspan x="10" y="1322">  ├── readme-filenames@1.0.1 </tspan>
<tspan x="10" y="1338">  ├── resolve@1.1.7 </tspan>
<tspan x="10" y="1354">  └─┬ through2@2.0.3 </tspan>
<tspan x="10" y="1370">    ├─┬ readable-stream@2.2.9 </tspan>
<tspan x="10" y="1386">    │ ├── buffer-shims@1.0.0 </tspan>
<tspan x="10" y="1402">    │ └── string_decoder@1.0.0 </tspan>
<tspan x="10" y="1418">    └── xtend@4.0.1</tspan>
</text>
</svg>
